<svg id="Layer_1" data-name="Layer 1" xmlns="http://www.w3.org/2000/svg" viewBox="0 0 210.92 91.03"><path d="M153.38,91.53l-2.75,1.39-.17-.28c.84-.53,1.69-1,2.51-1.61a.68.68,0,0,0,.19-.69l-1.66,1.09-.2-1.25-.25,0-.25,1-.85-1-.19.13a.82.82,0,0,1,.14.28c0,.36.19.93,0,1-.47.33-.65-.08-.83-.5a8.55,8.55,0,0,0-.8-1.19l.71-.06-.66-1.12h1.22a1.28,1.28,0,0,1-1-1.72,8.69,8.69,0,0,0-.07-2.21c0-.29-.11-.59-.11-.88.07-3.63.16-7.27.23-10.9,0-1.31,0-2.61,0-3.92a11.12,11.12,0,0,0-.34-1.66l.23.1.21-3.39c-.35-.07-.82,0-1-.23a2.73,2.73,0,0,1-.22-1.1l1.17.12V41.17c-1.62,7.27-3.25,14.57-4.85,21.73.52.22,1.11.3,1.35.63s.47,1.17.26,1.4-1,.33-1.72.53c0,.56.09,1.4.13,2.25,0,.32.11.82,0,.92-.65.44-.66,1-.34,1.74l-1.39-.21.27,1c-1.07.17-1.06-.86-1.27-1.37a20,20,0,0,1-.62-2.83,5.24,5.24,0,0,0-.54-1c.77-.3.12-1,0-1.43-.33-1.16-1.09-2.2-.63-3.51.09-.26-.07-.85-.23-.89-.94-.27-.51-.9-.53-1.46,0-.27-.31-.53-.45-.74a2.44,2.44,0,0,0,.06-.88c-.26-.93-.6-1.83-.88-2.75-.08-.27,0-.58-.12-.84a10.1,10.1,0,0,1-.94-4.18c0-.6-.47-1.24-.82-1.85-.3,5.19-1,10.37-.35,15.7-.08.93-.22,2-.26,3.11-.06,1.3-.09,2.6,0,3.9s-.37,2.53.49,3.36a9.72,9.72,0,0,0-.36,1.6c0,1.37,0,2.74,0,4.11a3.45,3.45,0,0,1-.47,1.08l.79.59-1.13.91.13.21,1.18-.62.19.24-2.22,2L133,82.34c-.08,0-.17,0-.2,0a2.75,2.75,0,0,1-2.81.87,5.73,5.73,0,0,0-2.36.12c-.83.17-.86-.28-.85-.85,0-2.2.08-4.4.11-6.6a5,5,0,0,0-.22-1,3.44,3.44,0,0,0,.32-1,11.54,11.54,0,0,0-.07-2.94c-.22-1,.14-2,0-3a8.19,8.19,0,0,0-.75-1.71c1-1.32,1-1.42-.17-2.47l-.51.59-.72-.8a8.33,8.33,0,0,1,1.13-.16,8.41,8.41,0,0,1,1.25.26l-.74-1,.7-.91-.16-.14-1.13,1-.28-.06c.07-.42,0-1,.25-1.23s.77-.14,1.12-.18c.59-1.21-.58-2.49.07-3.94.39-.89,0-2.12,0-3.19s-.12-2.07-.15-3.11,0-2.06,0-3.09c0-2.41.15-4.82.18-7.23,0-1.07-.1-2.15-.09-3.22s.13-2.19.15-3.28c0-1.56,0-3.12,0-4.67a20.18,20.18,0,0,0,.15-2.78c-.15-1.15.46-2.34-.26-3.45a1,1,0,0,1,0-.84c.76-1.07.17-2.23.26-3.34a2.14,2.14,0,0,0-.3-1c-.32-.64-.31-.62.23-1.22a1.21,1.21,0,0,0,.11-.86,4.1,4.1,0,0,1,4.77-4.4,2.24,2.24,0,0,0,2.44-.56.34.34,0,0,1,.17-.11c.37-.11,2.14,1.23,2.21,1.62.13.65.35,1.27.49,1.91.82,3.74,1.62,7.48,2.45,11.22a3,3,0,0,0,.51.8c0,.15-.2.39-.16.59.45,2.08.92,4.16,1.38,6.24a3.15,3.15,0,0,0,.43,1.18c.34-1.06.78-2.09,1-3.17.48-2.18.82-4.4,1.29-6.58.77-3.59,1.79-7.14,2.3-10.76a5.16,5.16,0,0,1,1.55-3l.56.75v-.25c.8,0,1.6-.11,2.4-.13,1.61-.05,3.21-.12,4.81-.11,1.45,0,1.62.38,1.4,1.76-.42,2.63-1,5.24-.7,7.94.23,2,.31,4,.47,6.11.45-.51.84-.82.39-1.43a1.62,1.62,0,0,1-.13-.87c0-1.51-.09-3-.11-4.54,0-.42-.65-1,.32-1.26,0,1.15.64,2.23,0,3.42-.19.34.13,1,.22,1.46a8.62,8.62,0,0,1-.11,4.28,1.15,1.15,0,0,0,.11.67c.7,1.8.34,3.62.2,5.45-.09,1.16,0,2.33-.06,3.49a16.21,16.21,0,0,1-.25,1.8h.29c-.07,1.79-.92,3.62.28,5.41-.51.46-1.32.92-.53,1.86-.87,1.13.62,2.49-.36,3.61a.45.45,0,0,0,0,.29c.23,3.8-.16,7.6.11,11.39,0,.61-.29,1.24-.3,1.87,0,3.35-.07,6.7-.09,10a49.65,49.65,0,0,1-.09,6.46c-.2,1.51,0,3-.27,4.5-.15,1,0,1.94-.09,2.9,0,.25-.32.47-.54.77.74.66.37,1.1-.34,1.5a4.16,4.16,0,0,0-.75.76ZM157,35.21h-.13v5H157Z" transform="translate(-3.26 -4.48)"/><path d="M187.59,93.23a1.86,1.86,0,0,0-.21-.76c-1.56-1.86-.89-4.1-1-6.17s.14-4.33.2-6.49.16-4.51.17-6.76-.09-4.53-.13-6.79c0-.76,0-1.51,0-2.17l-1.55-.42,0-.17,1.52-.22-.71-1,.58,0v-4.9l-.23-.15c-.57,1.32-1.49.67-2.08.35s-.75-1.07-1-1.66c0-.08.25-.33.44-.56l.22.92c.33-.88.57-1.68,1.69-1.65,0-.58,0-1.17,0-1.76,0-.11-.12-.21-.22-.39l.49,0c-.13-.89,1.28-1.3.62-2.51-.33-.59.19-1.65.34-2.55l-.47-.17c.65-1.31.21-2.67.3-4,.1-1.52,0-3.05.06-4.57,0-1.73.08-3.46.1-5.19,0-.68-.14-1.37-.12-2,0-1,.19-2.07.2-3.1,0-.87-.15-1.75-.15-2.62,0-1.53.1-3.06.12-4.59,0-.82,0-1.63-.06-2.44-.06-1.71-.14-3.42-.2-5.13a.51.51,0,0,1,.17-.33,33,33,0,0,1,2.73-2.28c.31-.22.91-.06,1.37,0,.84.05,1.67.15,2.5.23.62.06,1.24.51,1.82-.26.26-.36,1.6.32,1.79.9.59,1.78,1.24,3.54,1.7,5.36s.73,3.86,1.13,5.78c.46,2.14,1,4.27,1.53,6.66.14-.9.29-1.55.34-2.21.09-1.23.15-2.47.16-3.7,0-.76-.14-1.52-.17-2.29-.09-2.07-.19-4.14-.2-6.22,0-1.11.46-2.3.21-3.34a10.56,10.56,0,0,1,.21-4.2A3.74,3.74,0,0,1,202.6,6,1.74,1.74,0,0,1,204,5.5a1.24,1.24,0,0,0,1.58-.93l2,.71L208,5l.56.7-.19-1.06.22-.18,1.48,2c-.12,4.1-.26,8.45-.39,12.81h.39v-4.5l.28,0a38.33,38.33,0,0,1,.37,4.64,4.51,4.51,0,0,0,.35,2.78,1.16,1.16,0,0,1,0,1c-.51.85-.07,1.68-.13,2.48a10,10,0,0,0,.33,3.67c.14.44-.13,1-.21,1.52,0,.07-.08.17-.07.19.81.68.42,1.58.26,2.52.53-.31.53-.31,1-2.49a1.71,1.71,0,0,1,.11,2.59l.36,0,.73-1.6.21.06-.47,1.58.43.29-.54,2,1-.34.11.2a4.19,4.19,0,0,1-1,.54,1.15,1.15,0,0,0-.64,1.46,6.54,6.54,0,0,1,.34,1l.67-.31.35.18a2,2,0,0,1,.22.74,3,3,0,0,1-.42.85l-.56-.44c-.23,1-.45,1.93-.73,3.1l-.44-.78a5.91,5.91,0,0,0-.54,1.24c0,.14.41.37.74.64l-.13.48h-.56c-.14,1.28-.29,2.51-.44,3.85.87.51.52,1.49.49,2.33-.05,1.34-.33,2.67-.34,4,0,2.95,0,5.91.11,8.86,0,1.37.17,2.74.11,4.12-.16-1.59-.31-3.18-.47-4.78h-.28v9.93h-.27l-.12-1.27H210c0,.93-.07,1.85-.09,2.78,0,2.1,0,4.21-.07,6.31,0,.42-.38.83-.43,1.22s.08.72-.06.83a34.33,34.33,0,0,1-2.86,2,1.15,1.15,0,0,1-1.05-.13l1-.27.18-.78c-.27-.38-1.05,1-.93-.51-1.26,1.16-2.52.83-3.76.57a.77.77,0,0,1-.43-.57c0-3.44.11-6.88.12-10.31a5.51,5.51,0,0,0-.55-2.59,16.28,16.28,0,0,1-.87-3.61c-.17-.72-.39-1.43-.54-2.15-.32-1.44-.57-2.89-.91-4.33-.4-1.71-.89-3.4-1.31-5.11s-.84-3.72-1.28-5.57c-.08-.37-.22-.73-.34-1.1l-.37-.06c-.17.44-.54.93-.46,1.33.12.6-.55,1.49.52,1.81-1,1.3-.49,2.82-.54,4.23s.39,2.9.24,4.31c-.52,5.08-.11,10.17-.26,15.25,0,1.31,0,2.62,0,3.92a12.07,12.07,0,0,0,.31,1.63c-.9.48-.3,1.5-.37,2.33-.13,1.7-.06,3.42-.19,5.13a5.6,5.6,0,0,1-1.2,2.85l0,0-.2.22-.46,0h-.6a.38.38,0,0,1-.15,0l-.2.43-.22.12.26.09h.1a.4.4,0,0,1,0,.15v.44l0,0h-.34l-.52.22L191,93l-.68.18-.47.23-.63-.21-.17,0a1.25,1.25,0,0,1,0-.19l-.2-.37h-.4l-.2.21-.44.4,0,0Zm7.64-48.34a2.05,2.05,0,0,0,.49,2.77C195.57,46.81,195.41,45.89,195.23,44.89ZM210.4,62h.17V58.94h-.17Z" transform="translate(-3.26 -4.48)"/><path d="M70.93,47.33l-.38,2.9,1,.09.08.21-1,.54c-.05.57-.23,1.16.68,1.34.17,0,.23.66.42,1.29l-.86-.62c-.07.09-.17.16-.17.23,0,1.9-.33,3.89,1.49,5.27l-.17.22-1.15-.89c0,.6,0,1.11,0,1.62,0,2.36-.11,4.73-.13,7.09,0,2.17,0,4.34,0,6.51,0,2.53,0,5.05,0,7.57a1.57,1.57,0,0,1-1.36,1.66c-.75.19-1.35,1-2,1.46a.65.65,0,0,1-.67.13H62.9c0-1.54,0-2.94,0-4.35,0-1.18.12-2.37.1-3.55a29.56,29.56,0,0,0-.25-3.39c-.09-.62-.41-1.21-.54-1.83,0-.18.19-.42.31-.64-1-.69-1-1.89-1.31-2.94-.52-2-.9-4-1.38-6.07-.24-1-.59-1.91-.88-2.87,0-.07-.07-.14-.05-.19.44-2.06-.51-3.93-.85-5.87-.23-1.31-.49-2.61-.83-3.88-.26-1-.68-1.92-1.1-3.08v3.47c0,1.59,0,3.19,0,4.79,0,3-.07,5.92,0,8.87,0,2.59.31,5.17.24,7.74a7.92,7.92,0,0,1-.06,2.56c-.31,1,.23,2.22.33,3.35,0,.47-.11,1-.11,1.43,0,.77,0,1.55,0,2.32,0,.54,0,1.07,0,1.61,0,.73.1,1.46.09,2.18a11.56,11.56,0,0,1-.18,1.65,7.19,7.19,0,0,0-.14.76,18.74,18.74,0,0,1-.24,3.42L56,87.1h-.14a11.92,11.92,0,0,1-.13,1.34c-.12.56-.34,1.11-.47,1.68a4.3,4.3,0,0,0,0,.88l-.2.21,0,.4c-.15.37.16,1.1-.73.91-.06,0-.21.47-.32.72l-.65.18h-.1l-.43,0H52l-.22.41V94l-.88-.18-.31-.4-.2,0-.23.21L48.84,94c-.13-.61-.23-1.18-.36-1.73a5.69,5.69,0,0,1-.28-2.95c.3-1.3-.21-2.77-.21-4.17,0-3.82,0-7.65.06-11.47,0-2.11,0-4.23,0-6.34,0-1.53.09-3.07.08-4.61a5.5,5.5,0,0,0-.27-1.85c-.44-1.25.27-2.41.15-3.63s-.15-2.16-.21-3.25c0-.48,0-1,0-1.49l.29-.08v-.16h-.78a8.36,8.36,0,0,0,.5-1.06c.09-.32.18-.77-.47-.48a6.05,6.05,0,0,1-.5-.79c.69.1,1.31.35.89-.62-.18-.41,0-1,0-1.44,0-.25-.28-.48-.42-.71l-.35.66-.55-1.61c.39-.14.95-.2,1.24-.51s.13-.82.18-1.28l-1.16-.09,1-.65c0-1.9,0-3.83,0-5.75,0-1-.2-2-.16-2.94.06-1.56.29-3.12.37-4.69,0-.84-.12-1.69-.14-2.53,0-1.76,0-3.52-.06-5.28s-.1-3.54-.08-5.31c0-1.12.19-2.23.29-3.44l-.46-.3c.07-.11.13-.24.19-.36a4.09,4.09,0,0,0,.64-.6A3.37,3.37,0,0,1,51.58,11c1.76.16,3.54,0,5.31.1a6.34,6.34,0,0,1,1.53.45l0,.26-.74.41L62.1,28.94h.15c0-1.06.12-2.11.15-3.17,0-1.23.08-2.47.07-3.7,0-.9-.11-1.81-.08-2.72,0-1.31.16-2.62.24-3.93,0-.82.08-1.64.11-2.41l-.65.58-.21-.18,1.57-2.17.26.13,0,.59a24.41,24.41,0,0,1,3.12-.72,30.64,30.64,0,0,1,3.49,0c.84.52.59,1.64.56,2.62,0,1.65-.28,3.3-.36,5s-.09,3.32-.1,5c0,1.23,0,2.47.06,3.7,0,2.32.06,4.65.15,7a9.23,9.23,0,0,0,.46,1.73,1.16,1.16,0,0,1,0,.76c-.77,1.23-.36,2.48-.16,3.74a8.8,8.8,0,0,1,0,1.85c0,.75-.16,1.49-.26,2.35l1.21-.27-.23,1,.9,1-.17.2-.5-.15-1,.74Z" transform="translate(-3.26 -4.48)"/><path d="M75,54.8a11,11,0,0,0,.57-5.08l-.85.16-.14-.18.57-.6-.08-.24c-.31.16-.61.33-.93.47s-.85.33-1.28.49l-.33-1,0,0L73.74,48l.25.73c.24-.07.56-.28.74-.19.87.41,1.09,0,1-.77a3.3,3.3,0,0,1,.16-.68c-.77,0-.39,1.92-1.52.88-.32-.29-.07-1.19-.09-1.8h1.32c.17-.39.17-.39-1.05-1.15h1.08c.37-1.2-.34-2.44-.3-3.74s0-2.88,0-4.17l-1-.63.93-.33V35.08c0-1.73-.1-3.47,0-5.19a4.64,4.64,0,0,0-.45-2.07.9.9,0,0,1,0-.68c1-1.4.55-3,.57-4.5,0-2.45.29-4.91.1-7.35-.14-1.82.78-2.84,1.92-3.87a1,1,0,0,1,.69-.29,15.21,15.21,0,0,0,3.69.18,25.31,25.31,0,0,1,2.61-.05,1.2,1.2,0,0,1,.84.78c.45,2.59.76,5.21,1.24,7.8.26,1.4.77,2.77,1.17,4.15.48,1.68.93,3.37,1.47,5a36.28,36.28,0,0,0,1.63,4c0-1.17,0-2.34,0-3.51,0-2.45-.12-4.9-.18-7.35,0-2-.15-4.06-.13-6.09,0-1.22.26-2.43.32-3.65,0-.61-.18-1.23-.18-1.84a19.54,19.54,0,0,1,.16-2.42c0-.16.3-.29.52-.48L90.7,7.4c.83-1,1.24-1.07,1.68-.22.07-.21.11-.36.15-.51s.08-.29.11-.39c.4.36.79,1,1.13.94a3.67,3.67,0,0,0,1.63-.78C96,6,96.59,5.45,97.19,5c.08-.06.25,0,.64,0l-1.15.62c1.1,0,1.18.37.81,1.23-.12.25-.54,1,.34,1.13,0,0,.13.07.13.11,0,.74,0,1.47,0,2.37l-.27-.7c-.08.16-.18.27-.16.33a10.91,10.91,0,0,1,.67,5c0,2.47-.09,4.94,0,7.41,0,1.37.28,2.74.39,4.11,0,.24-.25.5-.23.75.09,1.42-.18,2.88.38,4.27a1.46,1.46,0,0,1,.07.46c-.91.18-.32.87-.38,1.27-.12.83,0,1.7-.17,2.55.55,1.15.48,4.75-.28,5.82l.84,1.06.56-1.57.17,0c.07,1.12.16,2.25.18,3.38,0,.13-.38.28-.66.47L98.94,44l-.33,0c-.42.77.17,1.51.29,2.34l.33-.43c.36.1,0,4.13-.31,4.76A6.59,6.59,0,0,1,99.08,56l.26,0,.34-.41c-1.06,1.25-.11,2.52-.11,3.77a19.88,19.88,0,0,1-.41,2.91C98.33,61.43,99,60,98,59.06a25,25,0,0,0-.12,4.1,146,146,0,0,1,.92,15.36,6.8,6.8,0,0,1-.21,2.39,6,6,0,0,1-1.21,1.56l.78-.19.08.15-2.8,1.94c-.11-.45-.1-1.11-.92-.61-.25.16-.69,0-1,0-.76-.08-1.51-.2-2.26-.28-.6-.06-1.25.12-.91-1a9,9,0,0,0-.06-2.36q0-1.91.09-3.81A22.48,22.48,0,0,0,89.88,70c-.2-.88-.9-1.64-.64-2.72.11-.46-.53-1.1-.8-1.67a4.64,4.64,0,0,1-.17-.64,21.43,21.43,0,0,1-.51-2.8,3.09,3.09,0,0,0-1.44-2.09l.84.16a42.41,42.41,0,0,0-2.91-12.88l-.77.37c1,2.88.46,5.84.52,8.76s0,6.12,0,9.18h-.36V57.74H83.4c0,2,0,4,0,5.94,0,3.16,0,6.33,0,9.49,0,1.39.13,2.77.14,4.15,0,.51-.25,1-.3,1.55a12.54,12.54,0,0,0,0,1.84c0,.1.27.2.42.3a7.37,7.37,0,0,1-1.31,2c-.5.39-1.37.31-2.19.46l.55-1c-1.19,0-1.43,1.08-2.1,1.7l.39-1-2.18.3-.5.67-.18-.07.14-1a6,6,0,0,1-1.42.62,1.77,1.77,0,0,1-1.08-.34.72.72,0,0,1-.11-.7,1.2,1.2,0,0,1,.8-.26,7.17,7.17,0,0,1,1.29.2l-.64-1.14c.09-1.16.24-2.12.24-3.09,0-2.14-.08-4.28-.13-6.42,0-1.63-.11-3.26-.09-4.89s.16-3,.2-4.57a12.11,12.11,0,0,1,0-2.69,2.42,2.42,0,0,0-.86-2.71l1.05.58-.55-3Zm8.15,9.38H83v7.5h.26c0-2,0-4.08,0-6.13C83.25,65.09,83.19,64.64,83.16,64.18Zm.25-16.72c.77-.65.73-2.46,0-3.8ZM98,57.6l.32,0,.36-2-.51-.07Z" transform="translate(-3.26 -4.48)"/><path d="M179,83.23,178,84l-.13-.13,2.81-2.5L180.4,81a8.22,8.22,0,0,1-5,1.87c-2.07,0-4.14,0-6.2,0-2.85.06-5.69.15-8.54.24-.57,0-.72,0-.62-.73.15-1.06,0-2.16.09-3.24.13-2.87.29-5.75.42-8.62a13.34,13.34,0,0,0,0-2.28,2.54,2.54,0,0,1,.33-2.08c.1-.12,0-.39,0-.59.08-1.79.21-3.57.22-5.36s-.16-3.63-.15-5.44c0-2.1.15-4.21.18-6.31,0-1-.12-1.95-.16-2.93,0-.5,0-1,0-1.49,0-2,.06-3.91,0-5.86,0-1-.28-2.06-.31-3.09-.06-2.21,0-4.42-.05-6.64,0-3.19,0-6.38,0-9.58,0-1,.18-2,.26-3,0-.09-.06-.19-.07-.28-.08-.68-.71-1.35.12-2,.21-.18-.41-1,.25-1.17,1.14-.33,1.84-1.45,3.32-1.33,2.87.21,5.77,0,8.66,0l7.67-.06c1.1,0,1.55.42,1.42,1.52a38,38,0,0,0-.51,4.22c0,4.82.24,9.65.3,14.47,0,2.41-.12,4.82-.13,7.23,0,1.74.09,3.49.09,5.24,0,3.07,0,6.14,0,9.21,0,1.64,0,3.28.06,4.91,0,.3,0,.61,0,.9s.13.86.23,1.44c-.94.68.38,1.84-.53,2.89l1-.26a3.14,3.14,0,0,1-.1.34c-.22.39-.6.76-.64,1.16s.17.94.87.56a2.73,2.73,0,0,1,1-.11l.07.34a3.33,3.33,0,0,0-.9.4c-.39.32-1,.73-1,1.13-.09,2,0,4,0,6.07,0,1.88.06,3.77-.05,5.64,0,.49-.55.94-.86,1.43.55.19.69.65.16,1.27Zm-7.41-44.32v-.62l.2-.2.46-.5v0l-.06-.33.23-.47,0-.06.74-.3,0-.37c.21-.27.58-.52.6-.8a25.2,25.2,0,0,0,.08-3.25,5.36,5.36,0,0,0-.5-1.37c.72-.56,1-4.89.36-7.79-.73.05-1.67-.19-2.11.18-1,.84-1.59.16-2.47-.3a3.09,3.09,0,0,0-.29.89c0,2.21.06,4.43.12,6.64,0,.57.11,1.14.17,1.71l0,0-.29,3.13h.2l1-1.35v2.71c-.61.86,1.31,2.28-.47,3l.59.31,0,.24c.27.37.4.31.67-.29h0l.17-.24.41-.4Zm-2,22.54-.29-1.37-.9.19-.13,1.7,1-.19-.82.55,1,1.27c.17.89.36,1.85.56,2.82l-.34.08-.35-.77-1,2,.3.22c-.16-.94.25-1.2,1-1a1.5,1.5,0,0,1-.14,2.1c-.14.14-.11.47-.15.72-.14.85.6,1.82-.43,2.47h3.92V52.49c-.41,0-.54.09-.58.19-.87,1.88-1.74,3.77-2.58,5.67-.07.17.13.45.13.68C169.72,59.84,170,60.67,169.54,61.45Z" transform="translate(-3.26 -4.48)"/><path d="M104.12,89.87c-.55-.33-.92-.35-.78.49-.69.12-1,0-1.08-.85-.1-2.9-.32-5.81-.48-8.71a48.23,48.23,0,0,1-.2-5.23c.12-2-.2-3.95,0-5.95.21-2.38.2-4.78.25-7.17,0-1.17-.08-2.34,0-3.52,0-.72.2-1.45.23-2.18a13.15,13.15,0,0,0-.14-1.71L100.67,54l.92-.59.33.11V49.08c0-1.75,0-3.5,0-5.25,0-1.39,0-2.78,0-4.17,0-2.5,0-5-.08-7.51V29.54c0-2.22,0-4.44,0-6.66q0-4.3.09-8.6a5.42,5.42,0,0,1,.09-.72l-.56.29c-.12-1,0-1.36,1.51-2.74l-.21.82c.09,0,.21,0,.27,0,.53-.33.87-.92,1.74-.49.51.25,1.31-.18,2-.19,1.81,0,3.63,0,5.45,0s3.9.05,5.83-.1a2.49,2.49,0,0,1,2.6,2.14c.61,3.59,1.22,7.18,1.67,10.78a20,20,0,0,1,.14,5.93c-.51,2.75.09,5.38.35,8,.18,1.85.35,3.69.41,5.54.07,2.28,0,4.57.11,6.85a6.18,6.18,0,0,0,.34,1.22c.06.22.19.53.09.66-.8,1.18-.26,2.49-.38,3.72a15.75,15.75,0,0,0,.11,3,5.46,5.46,0,0,0,.41,1.24c-.13.78-.27,1.52-.34,2.27,0,.14.26.31.4.46a3.11,3.11,0,0,1,.22-.53,1.83,1.83,0,0,1,.36-.32c.07.18.23.4.18.55-.17.61-.42,1.2-.67,1.88h.65l.06.17-1.07.62c.1,2,0,4.13,0,6.25l.26,0a2.79,2.79,0,0,0-.33.91c.08,2.95.22,5.91.3,8.86,0,.26-.26.52-.39.78h.78l.11.21-1.82,1.41-.2-.18.19-.76-1.43.89.3-1.28-.22-.16-.84.74.1.26H115.1c.85-1.76.29-3.59.35-5.39s-.16-3.42-.16-5.14c0-1.34.2-2.68.24-4s0-2.74,0-4.1c0-2.49,0-5,0-7.45a19.35,19.35,0,0,0-.45-3.09c-.19-1-.86-1.32-1.86-1.18-.82.12-1.66.12-2.7.19a92.19,92.19,0,0,1,.1,9.41c0,3.28-.09,6.56-.19,9.84s.14,6.52-.06,10.08c.39.46.26,3.09-.48,3.64l.43.2L109,89h-.24a.33.33,0,0,1-.14,0l-.44.33,0,.25-.09,0-.27.22h-.63l-.64.39h-.15l-.41.22-.25,0h-.61l-.13,0,0-.16-.22-.41-.41-.21-.19.16Zm7-62.43c1.24.09.46,1.51,1.14,1.79a8.17,8.17,0,0,0-.53,1.3c.64.4.15.79.05,1.13a8.44,8.44,0,0,1-.6,1.49c-.23.47-.54.91-.9,1.52.21.31.6.85.95,1.41a4,4,0,0,1,.28.71c-.27.05-.54.07-.8.14a2.78,2.78,0,0,0-.5.23l2,2-.55-.17-.88,1.2-.63-.29c.52,1.72.58,1.75,2.71,1.59l.42-.74a5.76,5.76,0,0,0,.53.47c.35.23.72.43,1.18.7.14-1.29-.15-2.07-1.16-2.4.34-.52.9-1,.86-1.38-.21-2.19-.59-4.36-.89-6.53-.16-1.21-.28-2.42-.41-3.64-.21-2-.41-4.08-.59-5.9-.59.12-1.12.2-1.64.32-.34.09-.81.13-1,.36a6,6,0,0,0-.55,1.35l.84.71-.79.28.07.58.38-.19c.26.54.47,1,.67,1.4.1.19.19.38.29.58a3.94,3.94,0,0,0-.68,1.27c-.1,1,0,2,0,3.34.4-.6.81-.94.83-1.3C111.27,29.67,111.16,28.55,111.1,27.44Zm-1.33,37.84h0v4H110Z" transform="translate(-3.26 -4.48)"/><path d="M20.2,36.71l-1,0c-1-1.33-.93-3.09-1-4.72s.22-3.17.15-4.79c0-.9-.24-1.75-.27-2.63s0-1.81,0-2.91l-4.78.39a38.42,38.42,0,0,0,0,4.3,5.13,5.13,0,0,1,.06,1.73,23.61,23.61,0,0,0,0,2.79c0,2.64-.14,5.29-.09,7.94,0,1.58,0,3.14-.12,4.72,0,.38.19.77.17,1.09-.09,1.23-.19,2.47-.29,3.7,0,.48-.05,1-.08,1.43a1.83,1.83,0,0,0-.05.69c.66,1.94-.19,3.91.16,5.86a22.76,22.76,0,0,1,.27,3c0,.67-.13,1.35-.12,2,0,1,.16,2,.19,2.94,0,.59-.15,1.18-.11,1.76,0,.82.19,1.64.32,2.64-.26.23-.65,2.51-.25,3a1,1,0,0,0,.72.28c1.11,0,2.22,0,3.48,0,0-1.08,0-2.1,0-3.12A19.8,19.8,0,0,0,17.73,66c-.13-1.1.69-1.45,1-1.89l1.47.32a20.55,20.55,0,0,0,2.3.41,20.27,20.27,0,0,0,2.2-.06c1,0,1.34.29,1.36,1.27,0,1.85,0,3.7,0,5.56a35.91,35.91,0,0,0,0,4.15c.18,1.48-.27,2.92,0,4.38a9.4,9.4,0,0,0,.38,1.22l-.38,0-.24,1.5.23.19-1.79,1.21-.17-.18.12-.55L23.46,83a6.44,6.44,0,0,1-1.8.4,7.18,7.18,0,0,0-3.06,0c-.46.17-1.08-.14-1.62-.13s-1.13.17-1.69.22a2.16,2.16,0,0,1-.66-.19l-.56,1.15c.13-1.76-1.23-1.53-1.8-1.56a56.32,56.32,0,0,0-5.94.26s-.06,0-.12.07L6.4,84c-.25,0-.54,0-.67-.07a2.8,2.8,0,0,1-.43-.82l-.87.07V14l-.93.61-.24-.24a19.58,19.58,0,0,1,3.51-3.63l-.2.57c6.53,0,13.09-1,19.45-.44,0,1.13,0,1.9,0,2.67,0,1-.15,1.91-.17,2.86-.05,2.29,0,4.58-.1,6.87-.06,1.92-.2,3.84-.3,5.76a9.83,9.83,0,0,0-.08,2.09,3.58,3.58,0,0,1-.7,3.11l-.19.2-.46,0-.24,0h-.06l-.47.18,0,.35,0,.25a1.21,1.21,0,0,0,0,.19L23,36v0l0,.54-.33,0-.25,0,0-.36-.22-.2L22,35.58l-.2.31-.2.2-.23.43a.17.17,0,0,1,0,.1l0,.06-.05,0-.2,0h-.5ZM12.12,55.16h.29V35.67h-.29Z" transform="translate(-3.26 -4.48)"/><path d="M43.32,45c-.49.86.2,1.23.72,1.73l-.6.88-.13-.56-1.69-.15.88,1.85.48-.66.21.14-.32.59.64.43v1.85L43.3,51l-.93,1.9-.46-.35c-.77,1-.64,4.92.19,5.41-1.21,1.28-.71,2.9-.73,4.35,0,3,.13,6,.05,9l-.64-7.18c-1,.34-1,.45-.37,1.3.14.18,0,.57,0,.86s-.32.75-.27,1.09c.14,1.06.4,2.1.61,3.14l-.26.07-.35-.84a1.58,1.58,0,0,0,1.36,2.42c.49,0,1-.23,1.45-.19a2.6,2.6,0,0,1,1.23.46c.11.07,0,.54-.07.83-.06.66-.13,1.31-.14,2,0,1.6.27,3.28-.13,4.77s-.78,3.32-2.53,4l-.62-.55.61-.73c-.11,0-.39-.08-.48,0-1.17,1.22-2.64.65-4,.66-1.87,0-3.74-.17-5.62-.19a6.91,6.91,0,0,0-1.6.45c-.1-.94-.24-1.92-.3-2.92-.06-1.2-.06-2.41-.07-3.61a4.8,4.8,0,0,1,2.12-4.28,2.35,2.35,0,0,0,.91-2.26c.08-2.61.12-5.21.09-7.82,0-1.1-.24-2.2-.32-3.31a12.81,12.81,0,0,0,.1-1.37c-.09-.45.4-1.1-.39-1.35l.24-.56-1.22-.81.8-.57c-.22-.12-.56-.2-.63-.37a6.73,6.73,0,0,1-.35-1.6,5.05,5.05,0,0,1,.16-1.14L30,50.08a.82.82,0,0,1-.05-.3c.07-.37.05-.86.28-1.07s.67.1,1,.17A3.29,3.29,0,0,1,31.65,46l-1.37-.78.12-.32,1.69.48.16-.13-.75-.78c1-1,.71-2.22.43-3.55a16.17,16.17,0,0,1,.17-3.38c0-2.42,0-4.84-.06-7.25,0-2,0-4-.08-6a17.65,17.65,0,0,0-.24-1.8H29.55a12.63,12.63,0,0,1-.16-1.87,24.2,24.2,0,0,0-.15-6.13,1.73,1.73,0,0,1,.43-1.29c.89-1.08,1.87-2.09,2.81-3.12l.24.2-.29.73c1.36-1.07,2.72-.45,4-.47,1.9,0,3.81,0,5.72,0,.65,0,1.08.33,1.08,1,0,1.65-.07,3.29-.11,4.94a10.41,10.41,0,0,1-.06,1.77c-.2,1.07-.32,2.2-1.53,2.74-1,.46-.5,1.39-.48,2.12,0,.14.39.25,0,.54-.17.13-.21.47-.22.72q-.12,6.42-.2,12.84c0,1.06.1,2.12.15,3.22L42,39.87a7.27,7.27,0,0,0-.38,1.65c0,.58-.53,1.34.45,1.73.26.11.41.5.61.76Z" transform="translate(-3.26 -4.48)"/><path d="M153.38,91.53l1.46-.75,1.88-1.07c-.28.94-.29.92-2.36,2.05a24.51,24.51,0,0,1-2.8,1.44Z" transform="translate(-3.26 -4.48)"/><path d="M179,83.23l2.32-2.16,1,.39c-.77.67-1.4,1.31-2.12,1.83-.27.18-.73.08-1.11.11,0,0-.05,0-.06-.07A.34.34,0,0,1,179,83.23Z" transform="translate(-3.26 -4.48)"/><path d="M30,50.08l.75,1.61c-1.05.42-1.26.37-2-.35Z" transform="translate(-3.26 -4.48)"/><path d="M75,54.78c-.62,1.23-1.3,1.45-1.8.54-.19-.34,0-.87,0-1.61L75,54.79Z" transform="translate(-3.26 -4.48)"/><path d="M184.56,61.3l.51-1,.5,1.27-.29.3-2.48-1.33,0-.25,1.57-.13-.11,1Z" transform="translate(-3.26 -4.48)"/><path d="M190.31,93.21,191,93l.47.22,0,0,.44.19,0,.43v.69l0,0-.27.06h-.12l-.21,0-.21.17-.63-.23,0-.22v-.52Z" transform="translate(-3.26 -4.48)"/><path d="M144.38,67.09a6.82,6.82,0,0,1,1.63-.36c.21,0,.41.5.62.78-.27.16-.56.49-.79.45a7.48,7.48,0,0,1-1.43-.57Z" transform="translate(-3.26 -4.48)"/><path d="M213.9,38.8l-.35-.18c-.17-.2-.36-.39-.52-.61s-.22-.4-.43-.79c.47-.08,1.15-.31,1.22-.19C214.13,37.56,214.43,38.19,213.9,38.8Z" transform="translate(-3.26 -4.48)"/><path d="M74.33,41.51c-.76.45-1.47,1.27-2.5.55C72.4,40.59,73.51,41.72,74.33,41.51Z" transform="translate(-3.26 -4.48)"/><path d="M98.58,83,97,85.31l-.29-.2.58-.8-.09-.1-.68.44-.15-.18,2-1.74Z" transform="translate(-3.26 -4.48)"/><path d="M125.94,68.88c-.48-.16-.8-.25-1.11-.37a2.54,2.54,0,0,1-.65-.35.55.55,0,0,1,.14-.42,1.1,1.1,0,0,1,.69-.15C125.83,67.83,126.18,68.52,125.94,68.88Z" transform="translate(-3.26 -4.48)"/><path d="M29.14,13.19a2.79,2.79,0,0,1,2-2.71Z" transform="translate(-3.26 -4.48)"/><path d="M45.14,43,45,40.36l.43-.13.5.94L45.3,43Z" transform="translate(-3.26 -4.48)"/><path d="M43.32,45l-.64-1L44,43.22a3,3,0,0,1,0,1.05C43.89,44.57,43.56,44.78,43.32,45Z" transform="translate(-3.26 -4.48)"/><path d="M31.55,58.84a4.37,4.37,0,0,1-.8.92,1,1,0,0,1-.85,0c-.15-.09-.18-.55-.09-.78s.44-.15.68-.17S31.15,58.84,31.55,58.84Z" transform="translate(-3.26 -4.48)"/><path d="M72.69,85.1c-.4.29-.69.64-.87.59s-.5-.42-.75-.65c.21-.21.44-.62.63-.6S72.25,84.79,72.69,85.1Z" transform="translate(-3.26 -4.48)"/><path d="M70.92,47.33l1.58,1.5,0,0c-.92.35-1.6-.27-1.61-1.46Z" transform="translate(-3.26 -4.48)"/><path d="M132.7,11.38c-1-.31-1.15-.79-.95-1.36,0-.12.37-.14.56-.2Z" transform="translate(-3.26 -4.48)"/><path d="M156.15,91.4c0,1.41-1.2,1.07-1.83,1.49l-.15-.2Z" transform="translate(-3.26 -4.48)"/><path d="M20.53,84.27a6.91,6.91,0,0,1,1.2.15c.08,0,.05.44.07.67l-1.36-.24Z" transform="translate(-3.26 -4.48)"/><path d="M47.58,13.06c-.06.12-.12.25-.19.36l-.45.5-.29-.18L48,11.55l.27.14Z" transform="translate(-3.26 -4.48)"/><path d="M86.52,68.72c-.09-.64-.08-1.22,1-1.41l-.71,1.58Z" transform="translate(-3.26 -4.48)"/><path d="M185.92,12.71l1.74-1.47.2.21L186.2,13Z" transform="translate(-3.26 -4.48)"/><path d="M29.55,57l-.92,1.15-.47-1.32Z" transform="translate(-3.26 -4.48)"/><path d="M42.34,55.46a2.74,2.74,0,0,1,.91,0c.1,0,0,.51,0,.78l-1-.37Z" transform="translate(-3.26 -4.48)"/><path d="M24.78,51.21a8.82,8.82,0,0,1-1.14.12c-.06,0-.11-.38-.16-.58h1.28Z" transform="translate(-3.26 -4.48)"/><path d="M190.43,94.36l0,.22,0,.11-.6,0-.24.22,0,0-.59-.26a.09.09,0,0,0,0-.13l0,0,.63-.64,0,0,.23,0,.38.2,0,0Z" transform="translate(-3.26 -4.48)"/><path d="M190.42,94.86c-.21,1-.81.61-1.37.39l.58-.41,0,0,.22,0H190Z" transform="translate(-3.26 -4.48)"/><path d="M189,94.45l-.81-.43,0,0,.21-.24.44,0,0,0L189,94v.43Z" transform="translate(-3.26 -4.48)"/><path d="M104.12,91l0-.45.23-.2,0,0h.45l0,0,0,.44-.42.19-.22,0Z" transform="translate(-3.26 -4.48)"/><path d="M187.61,93.8v-.34l.21-.25,0,0,.44,0v.22Z" transform="translate(-3.26 -4.48)"/><path d="M192.23,93.25l.44,0-.57.61-.06-.4.23-.21Z" transform="translate(-3.26 -4.48)"/><path d="M21.86,37.28l0-.41,0,0,.43,0-.06.42Z" transform="translate(-3.26 -4.48)"/><path d="M108.53,90.45l0,.38-.44,0v-.43Z" transform="translate(-3.26 -4.48)"/><path d="M108.54,89.76v.39l-.41.06,0-.44,0,0h.44Z" transform="translate(-3.26 -4.48)"/><path d="M52.45,94.45,52,94l0,0,.43,0Z" transform="translate(-3.26 -4.48)"/><path d="M53.21,94.83l-.2.28c0-.09-.1-.19-.16-.28l0,0h.44Z" transform="translate(-3.26 -4.48)"/><path d="M107.73,91.18c-.14.13-.27.27-.4.41l0,0,0-.44.44,0Z" transform="translate(-3.26 -4.48)"/><path d="M22.9,37.31l-.41,0-.08-.4.24,0,0,0Z" transform="translate(-3.26 -4.48)"/><path d="M53.67,93.82,54,93.5Z" transform="translate(-3.26 -4.48)"/><path d="M106.3,92.35l-.4-.36.41.06Z" transform="translate(-3.26 -4.48)"/><path d="M50.29,94.75l-.09.09.14,0,0-.1Z" transform="translate(-3.26 -4.48)"/><path d="M191.43,95.24l-.18-.41,0,0h.24l0,0v.4Z" transform="translate(-3.26 -4.48)"/><path d="M192,94.9l-.17.35v-.38l.09,0Z" transform="translate(-3.26 -4.48)"/><path d="M24.86,34.63v.49l-.23,0v-.43Z" transform="translate(-3.26 -4.48)"/><path d="M24.64,35.45v.39l-.21,0v-.43l.23,0Z" transform="translate(-3.26 -4.48)"/><path d="M24.64,36.13l-.19.34,0,0,0-.43Z" transform="translate(-3.26 -4.48)"/><path d="M24.45,36.47l-.37.21,0-.2.43,0Z" transform="translate(-3.26 -4.48)"/><path d="M23.63,36.67l-.41.19,0,0,0-.23.44,0Z" transform="translate(-3.26 -4.48)"/><path d="M21,36.87l0,.44L21,37.26h-.08l-.07-.4.22,0Z" transform="translate(-3.26 -4.48)"/><path d="M23.05,37.29v-.42l0,0h.23l0,0C23.17,37,23.11,37.15,23.05,37.29Z" transform="translate(-3.26 -4.48)"/><path d="M20.26,37.27h0Z" transform="translate(-3.26 -4.48)"/><path d="M21,37.29h0Z" transform="translate(-3.26 -4.48)"/><path d="M55.48,91.21h-.42l.2-.21Z" transform="translate(-3.26 -4.48)"/><path d="M108.14,91l.4.05-.39.16Z" transform="translate(-3.26 -4.48)"/><path d="M55.35,91.62l.11-.43Z" transform="translate(-3.26 -4.48)"/><path d="M103.51,91.26l.19.36Z" transform="translate(-3.26 -4.48)"/><path d="M103.68,91.6h.43l0,.2Z" transform="translate(-3.26 -4.48)"/><path d="M104.68,91.8h-.33a.58.58,0,0,0,0-.19l0,0h.44l0,0Z" transform="translate(-3.26 -4.48)"/><path d="M106.91,91.8h-.33l-.06-.19H107Z" transform="translate(-3.26 -4.48)"/><path d="M105.73,92v.44l-.2-.38Z" transform="translate(-3.26 -4.48)"/><path d="M193.66,92l-.19.37v0l0-.43Z" transform="translate(-3.26 -4.48)"/><path d="M193.47,92.4l-.38.21s0,0,0-.07a.78.78,0,0,0,0-.14l.43,0Z" transform="translate(-3.26 -4.48)"/><path d="M50.44,93.82l0-.4.2,0c0,.13,0,.27,0,.4l-.08,0Z" transform="translate(-3.26 -4.48)"/><path d="M191.86,95.25h-.43v0h.44Z" transform="translate(-3.26 -4.48)"/><path d="M53.41,94.1l0,.32-.21,0V94A.44.44,0,0,0,53.41,94.1Z" transform="translate(-3.26 -4.48)"/><path d="M50.3,94.78l-.14,0,0,.09.11-.09Z" transform="translate(-3.26 -4.48)"/><path d="M104.92,91.8l0-.2.19.2h-.17Z" transform="translate(-3.26 -4.48)"/><path d="M107.16,91.8l0-.2.23,0,0,0Z" transform="translate(-3.26 -4.48)"/><path d="M193.46,91.6l.23-.06,0,.25-.2,0Z" transform="translate(-3.26 -4.48)"/><path d="M108,91.21l-.24,0,0,0c0-.07,0-.15,0-.22l.22,0,0,0Z" transform="translate(-3.26 -4.48)"/><path d="M193.68,91.23l-.22,0,0-.22,0,0Z" transform="translate(-3.26 -4.48)"/><path d="M21.4,37.29l.15,0-.08,0Z" transform="translate(-3.26 -4.48)"/><path d="M192.64,93.24l.23-.33Z" transform="translate(-3.26 -4.48)"/><path d="M23.83,36.48l0,.21-.23,0,0,0,0-.22.23,0Z" transform="translate(-3.26 -4.48)"/><path d="M104.09,90.07l.22.11,0,.22,0,0-.22,0Z" transform="translate(-3.26 -4.48)"/><path d="M108.54,89.6h.21l-.21.16,0,0v-.22Z" transform="translate(-3.26 -4.48)"/><path d="M51.81,94v-.17l.22,0,0,.23,0,0Z" transform="translate(-3.26 -4.48)"/><path d="M187.88,94.05l.33-.23,0,.24,0,0Z" transform="translate(-3.26 -4.48)"/><path d="M24.88,35.2l-.24.25,0,0,0-.22Z" transform="translate(-3.26 -4.48)"/><path d="M104.11,91.21l-.33-.22.34,0,0,0Z" transform="translate(-3.26 -4.48)"/><path d="M191.85,94.56l0,0,.22.12Z" transform="translate(-3.26 -4.48)"/><path d="M52.64,94.69a.41.41,0,0,0,.19,0l0,.21,0,0Z" transform="translate(-3.26 -4.48)"/><path d="M53.22,94.64l.2,0-.21.16,0,0Z" transform="translate(-3.26 -4.48)"/><path d="M191,94.81l.21-.17v0a.28.28,0,0,1,0,.2l0,0Z" transform="translate(-3.26 -4.48)"/><path d="M105.71,92.4l.16.2Z" transform="translate(-3.26 -4.48)"/><path d="M192.64,92.6l-.41.65,0,0H192l0,0-.16-.15-.08.15,0,0h-.44l0,0-.25-.62.52-.22.24.29h-.07l0,0,.12-.32,0,0,.22,0,.42.22Z" transform="translate(-3.26 -4.48)"/><path d="M189,93.2l.17,0,.4.62,0,0-.43,0,0-.18-.13.17-.23,0,0,0v-.44l0,0,.23-.23Z" transform="translate(-3.26 -4.48)"/><path d="M192.07,91.19a.38.38,0,0,0,.15,0l.46.44,0,0v.22l0,0h-.44l0,0-.23-.23,0,0Z" transform="translate(-3.26 -4.48)"/><path d="M189,93a1.25,1.25,0,0,0,0,.19l0,0-.23.23,0,0-.44,0v-.22l.2-.21Z" transform="translate(-3.26 -4.48)"/><path d="M192.68,91.63V91.2h.15l0,.43,0,0h-.23Z" transform="translate(-3.26 -4.48)"/><path d="M191.91,91.83l-.08-.24.24,0,0,0v.23l0,0Z" transform="translate(-3.26 -4.48)"/><path d="M192.26,92H192a.4.4,0,0,0,0-.15l0,0h.23l0,0V92Z" transform="translate(-3.26 -4.48)"/><path d="M52.64,93.85l0-.42h.24l-.06.42,0,0h-.23Z" transform="translate(-3.26 -4.48)"/><path d="M53.22,93.85c0-.15.05-.29.07-.44h.1c0,.13,0,.26,0,.39A.2.2,0,0,0,53.22,93.85Z" transform="translate(-3.26 -4.48)"/><path d="M170.68,39.72l-.54.33,0-.24Z" transform="translate(-3.26 -4.48)"/><path d="M171.77,37.49l.46.13v0l-.47.08,0,0Z" transform="translate(-3.26 -4.48)"/><path d="M171.37,38.73l.2,0v.22h-.21l0-.22Z" transform="translate(-3.26 -4.48)"/><path d="M172.41,36.82l-.24-.15.22.09Z" transform="translate(-3.26 -4.48)"/><path d="M105.5,90.39h.18c0,.14,0,.29,0,.43s-.14.13-.2.2l-.44,0,0,0-.23-.2,0-.43,0,0,.13,0Z" transform="translate(-3.26 -4.48)"/><path d="M108.57,89.15l0,.45,0,0h-.43l0,0,0-.25Z" transform="translate(-3.26 -4.48)"/><path d="M107.33,89.78v.43l0,0h-.23l0,0,0-.42Z" transform="translate(-3.26 -4.48)"/><path d="M106.35,90.41v-.23h.15l0,.23,0,0h-.23Z" transform="translate(-3.26 -4.48)"/><path d="M104.7,90.18l.21,0,0,.16,0,0h-.22l0,0Z" transform="translate(-3.26 -4.48)"/><path d="M108,89.57l.09,0,0,0v.23l0,0-.22,0Z" transform="translate(-3.26 -4.48)"/><path d="M104.28,89.58l0,.21-.22-.05Z" transform="translate(-3.26 -4.48)"/><path d="M108.54,89.19l0-.23a.33.33,0,0,0,.14,0Z" transform="translate(-3.26 -4.48)"/><path d="M23.24,35.27l0-.25,0-.35.47-.18.15.18,0,0h.23l0,0,.44,0c0,.15,0,.3,0,.44l0,0-.41.23h-.22l-.15-.16,0,.16Z" transform="translate(-3.26 -4.48)"/><path d="M23.06,36.87h-.45l0,0-.24-.23,0,0v-.23l0,0,.25,0,.33.21,0,.22Z" transform="translate(-3.26 -4.48)"/><path d="M22.43,36.09l0,.36,0,0-.23,0,0-.44,0,0Z" transform="translate(-3.26 -4.48)"/><path d="M21.32,36.66l-.34.21,0,0,.1-.22Z" transform="translate(-3.26 -4.48)"/><path d="M23.86,34.67l-.09-.19.24,0,0,.22,0,0h-.23Z" transform="translate(-3.26 -4.48)"/><path d="M20.78,36.68l0,.22a2.09,2.09,0,0,1-.2-.22Z" transform="translate(-3.26 -4.48)"/><path d="M21.4,36.52h.24l0,0v.23l0,0-.23-.05A.17.17,0,0,0,21.4,36.52Z" transform="translate(-3.26 -4.48)"/><path d="M23.25,36.06,23,36v0l.25-.09,0,0v.23Z" transform="translate(-3.26 -4.48)"/><path d="M191.58,94.62l.27.25v0h-.43l0,0v-.24Z" transform="translate(-3.26 -4.48)"/><path d="M190.22,94l.21-.19V94a.15.15,0,0,1-.19,0Z" transform="translate(-3.26 -4.48)"/><path d="M191.25,94.64l.21,0v0a.41.41,0,0,1-.19,0Z" transform="translate(-3.26 -4.48)"/><path d="M21.83,36.87l-.21-.2,0,0,.23,0,0,.23Z" transform="translate(-3.26 -4.48)"/><path d="M104.09,91.19h.22l0,.43,0,0-.22,0Z" transform="translate(-3.26 -4.48)"/><path d="M192.64,92.4h.23v.21l-.22,0,0,0Z" transform="translate(-3.26 -4.48)"/><path d="M105.71,92l0-.23,0,0h.23l0,0,0,.23Z" transform="translate(-3.26 -4.48)"/><path d="M105.53,91.59l-.4-.41,0,0,.43,0,0,.44Z" transform="translate(-3.26 -4.48)"/><path d="M104.92,91.62l-.23,0,0,0v-.44l0,0h.23l0,0Z" transform="translate(-3.26 -4.48)"/><path d="M105.74,91.79h-.21v-.2l0,0,.23,0,0,.22Z" transform="translate(-3.26 -4.48)"/><path d="M105.13,91.18h-.24l0,0V91l0,0h.24l0,0v.23Z" transform="translate(-3.26 -4.48)"/><path d="M188.19,93.42h.22v.43h-.22Z" transform="translate(-3.26 -4.48)"/><path d="M190,94.86h-.23v-.23Z" transform="translate(-3.26 -4.48)"/><path d="M22.41,36.67l0,.23h-.23v-.23l.23,0Z" transform="translate(-3.26 -4.48)"/><path d="M104.73,90.21h-.44v-.43h.43Z" transform="translate(-3.26 -4.48)"/><path d="M107.93,90.21l.23,0v.22l-.22,0,0,0v-.22Z" transform="translate(-3.26 -4.48)"/><path d="M107.94,90.79h.22V91l-.23,0,0,0Z" transform="translate(-3.26 -4.48)"/><path d="M193.26,91.19h.22v.43Z" transform="translate(-3.26 -4.48)"/><path d="M106.31,91.6a.61.61,0,0,0,0,.19h-.42l0,0,0-.22.43,0Z" transform="translate(-3.26 -4.48)"/><path d="M192,93.21l0,.23h-.22l0-.23,0,0h.24Z" transform="translate(-3.26 -4.48)"/><path d="M52.84,94.45l-.09,0h-.09c0-.13,0-.26,0-.39l0,0h.23l0,0Z" transform="translate(-3.26 -4.48)"/><path d="M52.41,94.05v-.23l.23,0,0,0v.23l0,0Z" transform="translate(-3.26 -4.48)"/><path d="M24.67,34.67h-.23v-.23l.21,0Z" transform="translate(-3.26 -4.48)"/><path d="M106.51,91.18l0,.44-.23,0,0,0,0-.45.22,0Z" transform="translate(-3.26 -4.48)"/><path d="M106.93,91.62l0-.44,0,0h.23l0,0,0,.44Z" transform="translate(-3.26 -4.48)"/><path d="M193.48,92v0Z" transform="translate(-3.26 -4.48)"/><path d="M192.84,92.43h0Z" transform="translate(-3.26 -4.48)"/><path d="M24,36.06l0,.44-.23,0,0,0,0-.43.22,0Z" transform="translate(-3.26 -4.48)"/><path d="M24.47,36.09l-.44,0,0,0v-.23l0,0,.45,0Z" transform="translate(-3.26 -4.48)"/><path d="M53.24,94.05l-.44,0,0,0v-.23l0,0,.44,0Z" transform="translate(-3.26 -4.48)"/><path d="M52.81,94.44h.43v.22h-.41Z" transform="translate(-3.26 -4.48)"/><path d="M24.67,35.28h-.22l0-.23,0,0,.23,0Z" transform="translate(-3.26 -4.48)"/><path d="M192.67,92.43h-.43l0-.43,0,0h.43l0,0Z" transform="translate(-3.26 -4.48)"/><path d="M192.84,91.62l.17.07-.16.1,0,0v-.24Z" transform="translate(-3.26 -4.48)"/><path d="M192.85,91.79l-.21.21,0,0v-.23l0,0h.24Z" transform="translate(-3.26 -4.48)"/><path d="M189.81,93.86v0Z" transform="translate(-3.26 -4.48)"/><path d="M188.62,93l-.21.2h-.22v-.43l.2-.2h.44Z" transform="translate(-3.26 -4.48)"/><path d="M52.43,93.85H52v-.43h.44Z" transform="translate(-3.26 -4.48)"/><path d="M169.13,32l.93-2.58c.09.91.16,1.52.21,2.13,0,.24.08.55,0,.7a3.44,3.44,0,0,1-.7.56L169.1,32Z" transform="translate(-3.26 -4.48)"/><path d="M171.4,38.29l0,.44,0,0-.4,0Z" transform="translate(-3.26 -4.48)"/><path d="M172.21,37.31h-.44l0-.39Z" transform="translate(-3.26 -4.48)"/><path d="M172.21,36.7l-.41,0Z" transform="translate(-3.26 -4.48)"/><path d="M171.8,38.12h-.23v-.45l.23,0,0,0C171.77,37.82,171.78,38,171.8,38.12Z" transform="translate(-3.26 -4.48)"/><path d="M171,39l.39-.08v.23H171A.13.13,0,0,0,171,39Z" transform="translate(-3.26 -4.48)"/><path d="M171,39.54l-.21,0,.2-.41Z" transform="translate(-3.26 -4.48)"/><path d="M171.59,38.09v.23h-.23Z" transform="translate(-3.26 -4.48)"/><path d="M171.79,37.51l-.22,0,.22-.27Z" transform="translate(-3.26 -4.48)"/><path d="M106.51,90.41H107l0,0h-.39Z" transform="translate(-3.26 -4.48)"/><path d="M107,90.42l.2-.21,0,0,0,.22-.22,0Z" transform="translate(-3.26 -4.48)"/><path d="M108,89.77l0,.44,0,0h-.23l0,0,0-.45Z" transform="translate(-3.26 -4.48)"/><path d="M107.32,90.21h.45l0,0v.23l0,0-.44,0,0-.22Z" transform="translate(-3.26 -4.48)"/><path d="M105.93,90.81l0-.43.44,0,0,0,0,.45-.43,0Z" transform="translate(-3.26 -4.48)"/><path d="M105.74,91l0-.22.23,0,0,0,0,.22-.23,0Z" transform="translate(-3.26 -4.48)"/><path d="M21.8,36.09v-.22h.43l0,.22,0,0Z" transform="translate(-3.26 -4.48)"/><path d="M23.26,35.9l0-.45.44,0,0,0-.42.4Z" transform="translate(-3.26 -4.48)"/><path d="M23.63,35.25h.23v.22l-.22,0,0,0Z" transform="translate(-3.26 -4.48)"/><path d="M23.66,36.06v.44h-.44l0-.44,0,0Z" transform="translate(-3.26 -4.48)"/><path d="M23.25,36.7H23v-.23h.23Z" transform="translate(-3.26 -4.48)"/><path d="M21.83,36.07v.43l-.23,0,0,0,0-.44Z" transform="translate(-3.26 -4.48)"/><path d="M189,93.83h.23l-.23.23Z" transform="translate(-3.26 -4.48)"/><path d="M104.92,90.79l0,.23,0,0h-.24l0,0,0-.24Z" transform="translate(-3.26 -4.48)"/><path d="M104.73,91.18l-.44,0V91l.44,0,0,0v.23Z" transform="translate(-3.26 -4.48)"/><path d="M21.81,36.7v-.23h.43v.23Z" transform="translate(-3.26 -4.48)"/><path d="M108,90.81l-.2.2-.44,0,0,0v-.23l0,0,.45-.45,0,0H108l0,0C107.94,90.51,108,90.66,108,90.81Z" transform="translate(-3.26 -4.48)"/><path d="M107.35,91.21l-.23,0,0,0V91l0,0h.23l0,0Z" transform="translate(-3.26 -4.48)"/><path d="M24,35.48v-.22h.44v.22Z" transform="translate(-3.26 -4.48)"/><path d="M23.84,35.89v-.44h.23c0,.14,0,.29,0,.44l0,0Z" transform="translate(-3.26 -4.48)"/><path d="M106.52,91H107l0,.22,0,0h-.45l0,0Z" transform="translate(-3.26 -4.48)"/><path d="M23.86,35.86v.23h-.23Z" transform="translate(-3.26 -4.48)"/><path d="M105.73,91.21h-.23V91l.23,0,0,0Z" transform="translate(-3.26 -4.48)"/><path d="M107.35,90.38l0,.44,0,0h-.23l0,0,0-.44Z" transform="translate(-3.26 -4.48)"/><path d="M106.32,91v-.23l.23.23Z" transform="translate(-3.26 -4.48)"/><path d="M107.16,91l-.24,0,.24-.19,0,0V91Z" transform="translate(-3.26 -4.48)"/><path d="M105.71,91.19l.2-.2h.43v.22l-.41.41h-.22Z" transform="translate(-3.26 -4.48)"/></svg>